HIERARCHY
ROOT Hips
{
    OFFSET 0.0 0.0 0.0
    CHANNELS 6 Xposition Yposition Zposition Zrotation Xrotation Yrotation
    JOINT LeftHipJoint
    {
        OFFSET 0.1 0.0 0.0
        CHANNELS 3 Zrotation Xrotation Yrotation
        JOINT LeftUpLeg
        {
            OFFSET 120.00230837211411 0.0 0.0
            CHANNELS 3 Zrotation Xrotation Yrotation
            JOINT LeftLeg
            {
                OFFSET 0.0 0.0 -387.1759743595619
                CHANNELS 3 Zrotation Xrotation Yrotation
                JOINT LeftFoot
                {
                    OFFSET 0.0 0.0 -380.98720776588823
                    CHANNELS 3 Zrotation Xrotation Yrotation
                    End Site
                    {
                        OFFSET 0.0 -0.1 0.0
                    }
                }
            }
        }
    }
    JOINT LowerBack
    {
        OFFSET 0.0 0.0 0.1
        CHANNELS 3 Zrotation Xrotation Yrotation
        JOINT Spine
        {
            OFFSET 0.0 0.0 220.386383716966
            CHANNELS 3 Zrotation Xrotation Yrotation
            JOINT Spine1
            {
                OFFSET 0.0 0.0 255.08690820080386
                CHANNELS 3 Zrotation Xrotation Yrotation
                JOINT LeftShoulder
                {
                    OFFSET 0.1 0.0 0.0
                    CHANNELS 3 Zrotation Xrotation Yrotation
                    JOINT LeftArm
                    {
                        OFFSET 143.35379676497365 0.0 0.0
                        CHANNELS 3 Zrotation Xrotation Yrotation
                        JOINT LeftForeArm
                        {
                            OFFSET 258.03790501571245 0.0 0.0
                            CHANNELS 3 Zrotation Xrotation Yrotation
                            JOINT LeftHand
                            {
                                OFFSET 236.2122143876709 0.0 0.0
                                CHANNELS 3 Zrotation Xrotation Yrotation
                                End Site
                                {
                                    OFFSET 0.1 0.0 0.0
                                }
                            }
                        }
                    }
                }
                JOINT Neck
                {
                    OFFSET 0.0 0.0 0.1
                    CHANNELS 3 Zrotation Xrotation Yrotation
                    JOINT Neck1
                    {
                        OFFSET 0.0 0.0 109.48985442501827
                        CHANNELS 3 Zrotation Xrotation Yrotation
                        End Site
                        {
                            OFFSET 0.0 0.0 114.07828391949158
                        }
                    }
                }
                JOINT RightShoulder
                {
                    OFFSET -0.1 0.0 0.0
                    CHANNELS 3 Zrotation Xrotation Yrotation
                    JOINT RightArm
                    {
                        OFFSET -143.35379676497365 0.0 0.0
                        CHANNELS 3 Zrotation Xrotation Yrotation
                        JOINT RightForeArm
                        {
                            OFFSET -258.03790501571245 0.0 0.0
                            CHANNELS 3 Zrotation Xrotation Yrotation
                            JOINT RightHand
                            {
                                OFFSET -236.2122143876709 0.0 0.0
                                CHANNELS 3 Zrotation Xrotation Yrotation
                                End Site
                                {
                                    OFFSET -0.1 0.0 0.0
                                }
                            }
                        }
                    }
                }
            }
        }
    }
    JOINT RightHipJoint
    {
        OFFSET -0.1 0.0 0.0
        CHANNELS 3 Zrotation Xrotation Yrotation
        JOINT RightUpLeg
        {
            OFFSET -120.00230837211411 0.0 0.0
            CHANNELS 3 Zrotation Xrotation Yrotation
            JOINT RightLeg
            {
                OFFSET 0.0 0.0 -387.1759743595619
                CHANNELS 3 Zrotation Xrotation Yrotation
                JOINT RightFoot
                {
                    OFFSET 0.0 0.0 -380.98720776588823
                    CHANNELS 3 Zrotation Xrotation Yrotation
                    End Site
                    {
                        OFFSET 0.0 -0.1 0.0
                    }
                }
            }
        }
    }
}
MOTION
Frames: 6
Frame Time: 0.03333333333333333
0.0 0.0 804.520281189497 25.424733174312127 8.488694605249508 4.586428519846722 0.0 0.0 0.0 -0.5322220987151823 -24.05506012725884 -2.2968667334168265 -0.4902662919971804 26.401377916692386 0.44613219681968097 0.0 0.0 0.0 0.0 0.0 0.0 0.009929905816621142 0.47506958739293553 0.42075729357734387 0.8210431826188358 8.050881554940589e-16 1.3857598732816226e-15 0.0 0.0 3.975693351829396e-16 -29.230720376340535 7.453498204590657 76.22430772667832 -22.443078737551243 -2.1401362454095683e-15 2.615291816825728e-15 0.0 0.0 2.683593012484842e-15 0.0 0.0 3.975693351829396e-16 -5.198582647648305 -3.2469062134636397 -4.46314411773769 0.0 0.0 3.975693351829396e-16 19.386271596594483 3.0527622396778455 -74.55655776478436 36.25596274998649 -2.9687990108565513e-15 -9.068052997703126e-15 0.0 0.0 -1.5902773407317582e-15 0.0 0.0 0.0 -0.44128717720360006 -20.134387943522054 -3.0085986996846645 -0.8221464880488395 25.392772514364104 1.589780632234146 0.0 0.0 -3.975693351829396e-16
0.0 0.0 804.520281189497 25.304991691480577 8.515610112419587 4.649444008201905 -4.138037154422024e-33 -7.951386703658792e-16 -5.963540027744094e-16 -0.5272516488688437 -24.211140105338593 -2.35840102365899 -0.5351594578231427 26.588738705246655 0.400900494985137 0.0 0.0 -3.975693351829396e-16 -4.138037154422024e-33 -7.951386703658792e-16 -5.963540027744094e-16 0.007842183386792902 0.3814870354332443 0.34734002016010007 0.5138247917497231 -1.1953700381238012e-15 -5.909999619976332e-16 0.0 0.0 -1.987846675914698e-16 -29.706612030950705 7.402532014439341 76.27847267504826 -22.024080508331235 5.273767667925538e-15 -3.542616976834224e-14 0.0 0.0 1.987846675914698e-15 0.0 0.0 -1.987846675914698e-16 -4.826496433812844 -3.3915350383472966 -4.463177246810575 0.0 0.0 -1.987846675914698e-16 19.261762702292856 3.8714459253036417 -74.72758344026653 37.06516967614406 1.010919995652505e-15 3.0156208057661083e-15 0.0 0.0 1.5902773407317584e-15 -4.138037154422024e-33 -7.951386703658792e-16 -5.963540027744094e-16 -0.438737528184227 -20.335487339187022 -3.0821951623573547 -0.8704865584175697 25.49892280963466 1.6699506979086056 0.0 0.0 -3.975693351829396e-16
0.0 0.0 804.520281189497 25.20950461805882 8.636239963007037 4.725002189877179 0.0 0.0 1.987846675914698e-16 -0.5306268082615919 -24.451626979014446 -2.4196444377974475 -0.5739671925126538 26.84058823941335 0.3889188425309645 -1.1034765745125397e-32 -1.5902773407317582e-15 -7.951386703658791e-16 0.0 0.0 1.987846675914698e-16 0.00524831072550032 0.25654170866965637 0.2398774714567004 0.27808759311362063 -9.953676250488525e-16 -5.93940223731266e-16 3.1805546814635168e-15 -5.517382872562698e-33 -1.987846675914698e-16 -30.029649095557605 7.415673983291846 76.29626220419865 -21.712050986770016 -3.263152110945789e-16 -6.742010834690604e-15 0.0 0.0 -1.4163407565892223e-15 3.1805546814635168e-15 -5.517382872562698e-33 -1.987846675914698e-16 -4.567289561331663 -3.5096379349524325 -4.4127977986207405 3.1805546814635168e-15 -5.517382872562698e-33 -1.987846675914698e-16 18.883347997281366 4.373354977043608 -74.64312501448237 38.07596426711903 -8.19398969153852e-15 -1.3995451513303431e-14 0.0 0.0 0.0 0.0 0.0 1.987846675914698e-16 -0.44209077091607385 -20.569234205084648 -3.1499167380742303 -0.9081537719661362 25.581653065735292 1.6696881552424387 0.0 0.0 0.0
0.0 0.0 804.520281189497 25.19242641642972 8.648568741689347 4.749723782731547 0.0 0.0 -3.975693351829396e-16 -0.5311305430895752 -24.586077396098364 -2.4048698305017835 -0.5736774190882049 27.02072444836521 0.3513262474624847 0.0 0.0 -3.975693351829396e-16 0.0 0.0 -3.975693351829396e-16 0.0033890050938241885 0.1665354610153842 0.1493238583277458 0.16636694686577538 1.989576184207986e-15 1.1898207430860082e-15 0.0 0.0 -1.987846675914698e-16 -30.21634432490343 7.415664008219509 76.41103544693071 -21.46558120141118 4.338916947044462e-15 -1.435188461972008e-14 0.0 0.0 2.1120870931593667e-15 0.0 0.0 -1.987846675914698e-16 -4.3826247700665375 -3.624392196815959 -4.30030482588774 0.0 0.0 -1.987846675914698e-16 18.49974713812862 4.743914699038545 -74.47228584300862 38.884402032646214 -2.117331950227094e-15 -5.998384594177461e-15 0.0 0.0 -2.385416011097637e-15 0.0 0.0 -3.975693351829396e-16 -0.4400846060046469 -20.58313815981676 -3.1499184970118304 -0.9107521896165448 25.569205428384873 1.618743594799229 0.0 0.0 3.975693351829396e-16
0.0 0.0 804.520281189497 25.152301650970532 8.655406960015313 4.796064446793089 2.758691436281349e-33 -1.5902773407317584e-15 1.987846675914698e-16 -0.5603632483461621 -24.701021506583174 -2.4072365851202604 -0.5462183704693727 27.194425429157274 0.32144805671986776 3.1805546814635168e-15 -1.5902773407317584e-15 -7.951386703658792e-16 2.758691436281349e-33 -1.5902773407317584e-15 1.987846675914698e-16 0.0004100834519250387 0.01920864063813159 0.05461819029228856 -0.0005546925719311829 -2.385416973307917e-15 1.987731207304232e-16 0.0 0.0 -1.987846675914698e-16 -30.23864685048981 7.425541577536002 76.54425664234596 -21.326493941353718 -3.2736312184529614e-15 1.7386327358579578e-14 0.0 0.0 -2.0375428428125655e-15 0.0 0.0 -1.987846675914698e-16 -4.282724327351183 -3.702197695960311 -4.2425857567469345 0.0 0.0 -1.987846675914698e-16 18.095935573262636 5.251981053645828 -74.2463962764594 40.229301046168736 5.973122069935481e-15 -2.1875842988940237e-15 0.0 0.0 7.951386703658792e-16 2.758691436281349e-33 -1.5902773407317584e-15 1.987846675914698e-16 -0.46273864174928125 -20.633865783283976 -3.1783144588325283 -0.8980663929422031 25.64868962645781 1.526744062996031 0.0 0.0 3.9756933518293955e-16
0.0 0.0 804.520281189497 25.180350432607266 8.610420544112912 4.803841440168459 0.0 0.0 7.951386703658792e-16 -0.5700172141227973 -24.78166546265252 -2.344657019245492 -0.5077539254209156 27.350373344937672 0.28310391665051454 -5.517382872562698e-33 -1.5902773407317584e-15 -3.975693351829396e-16 0.0 0.0 7.951386703658792e-16 0.00031259707794522446 0.014449352493087014 0.003140744813748211 -0.09660070954266628 1.9873432430873683e-15 5.980295458630409e-16 -1.3793457181406746e-33 -7.951386703658792e-16 -1.987846675914698e-16 -30.365511943157212 7.186863239165238 76.59274358391444 -21.260784089349446 -2.1103274926640565e-16 1.836567334729771e-14 -1.2414111463266072e-32 1.5902773407317588e-15 8.945310041616142e-16 -1.3793457181406746e-33 -7.951386703658792e-16 -1.987846675914698e-16 -4.292807016813515 -3.837205105246493 -4.260195094729208 -1.3793457181406746e-33 -7.951386703658792e-16 -1.987846675914698e-16 17.615878824401445 5.186583380727777 -73.7476302900544 41.35749113013768 5.615711502836251e-15 1.487823868478389e-14 0.0 0.0 -7.951386703658792e-16 0.0 0.0 7.951386703658792e-16 -0.46989467879963914 -20.675699201423708 -3.1811357673884086 -0.8950289691297096 25.753447188079 1.4997920295223794 0.0 0.0 -3.975693351829396e-16
